<svg xmlns="http://www.w3.org/2000/svg" viewBox="0 0 101 101"><path d="M84.1 28.5c-.5-.6-1.2-.9-1.9-.9h-61v-8.8c0-1.3-1.1-2.4-2.4-2.4-1.3 0-2.4 1.1-2.4 2.4v50c0 1.3 1.1 2.4 2.4 2.4h2.8c-1.9 3.5-1.5 7.9 1.5 10.9 1.7 1.7 4 2.7 6.4 2.7s4.7-.9 6.4-2.7c1.7-1.7 2.7-4 2.7-6.4 0-1.6-.4-3.1-1.2-4.4h11.3c-1.9 3.5-1.5 7.9 1.5 10.9 1.7 1.7 4 2.7 6.4 2.7 2.4 0 4.7-.9 6.4-2.7 1.7-1.7 2.7-4 2.7-6.4 0-1.6-.4-3.1-1.2-4.4h3.1c1.3 0 2.4-1.1 2.4-2.4 0-1.3-1.1-2.4-2.4-2.4H21.2v-4.7h53c1.1 0 2-.7 2.3-1.8l8-29.3c.2-1 0-1.7-.4-2.3zM32.6 78.6c-1.6 1.6-4.5 1.6-6.1 0-1.7-1.7-1.7-4.4 0-6.1.8-.8 1.9-1.3 3.1-1.3 1.2 0 2.2.4 3.1 1.3.8.8 1.3 1.9 1.3 3.1s-.5 2.2-1.4 3zm27.2 0c-1.6 1.6-4.5 1.6-6.1 0-1.7-1.7-1.7-4.4 0-6.1.8-.8 1.9-1.3 3.1-1.3 1.2 0 2.2.4 3.1 1.3.8.8 1.3 1.9 1.3 3.1s-.5 2.2-1.4 3zm12.5-21.8H21.2V32.3H79l-6.7 24.5z"/></svg>